<svg width="16" height="16" viewBox="0 0 16 16" fill="none" xmlns="http://www.w3.org/2000/svg">
<path d="M15.8445 6.43323H15.2001V6.40003H8.00003V9.60004H12.5213C11.8617 11.4628 10.0892 12.8001 8.00003 12.8001C5.34922 12.8001 3.20001 10.6508 3.20001 8.00003C3.20001 5.34922 5.34922 3.20001 8.00003 3.20001C9.22364 3.20001 10.3368 3.66162 11.1844 4.41562L13.4473 2.15281C12.0185 0.821203 10.1072 0 8.00003 0C3.58202 0 0 3.58202 0 8.00003C0 12.4181 3.58202 16.0001 8.00003 16.0001C12.4181 16.0001 16.0001 12.4181 16.0001 8.00003C16.0001 7.46363 15.9449 6.94003 15.8445 6.43323Z" fill="#FFC107"/>
<path d="M0.921875 4.27642L3.55029 6.20403C4.26149 4.44322 5.9839 3.20001 7.99951 3.20001C9.22311 3.20001 10.3363 3.66162 11.1839 4.41562L13.4467 2.15281C12.0179 0.821203 10.1067 0 7.99951 0C4.92669 0 2.26188 1.73481 0.921875 4.27642Z" fill="#FF3D00"/>
<path d="M8.00008 16.0003C10.0665 16.0003 11.9441 15.2094 13.3637 13.9234L10.8877 11.8282C10.0845 12.4366 9.08609 12.8002 8.00008 12.8002C5.91927 12.8002 4.15247 11.4734 3.48686 9.62183L0.878052 11.6318C2.20206 14.2226 4.89087 16.0003 8.00008 16.0003Z" fill="#4CAF50"/>
<path d="M15.8444 6.43335H15.2V6.40015H8V9.60016H12.5212C12.2044 10.495 11.6288 11.2666 10.8864 11.8286C10.8868 11.8282 10.8872 11.8282 10.8876 11.8278L13.3636 13.923C13.1884 14.0822 16 12.0002 16 8.00015C16 7.46375 15.9448 6.94015 15.8444 6.43335Z" fill="#1976D2"/>
</svg>
